<?xml version="1.0" encoding="UTF-8"?>
<svg width="284px" height="244px" viewBox="0 0 284 244" version="1.1" xmlns="http://www.w3.org/2000/svg" xmlns:xlink="http://www.w3.org/1999/xlink">
    <!-- Generator: Sketch 61.1 (89650) - https://sketch.com -->
    <title>Artboard</title>
    <desc>Created with Sketch.</desc>
    <g id="Artboard" stroke="none" stroke-width="1" fill="none" fill-rule="evenodd">
        <rect fill="#FFFFFF" x="0" y="0" width="284" height="244"></rect>
        <path d="M100.203,31.4414 L97.0996,31.4414 L97.0996,40 L95.3838,40 L95.3838,31.4414 L92.3076,31.4414 L92.3076,30.0469 L100.203,30.0469 L100.203,31.4414 Z M108.583,35.5566 L104.495,35.5566 L104.495,38.6191 L109.273,38.6191 L109.273,40 L102.766,40 L102.766,30.0469 L109.226,30.0469 L109.226,31.4414 L104.495,31.4414 L104.495,34.1895 L108.583,34.1895 L108.583,35.5566 Z M115.356,33.6426 L117.448,30.0469 L119.444,30.0469 L116.437,34.9824 L119.513,40 L117.496,40 L115.356,36.3496 L113.21,40 L111.2,40 L114.283,34.9824 L111.269,30.0469 L113.265,30.0469 L115.356,33.6426 Z M129.232,31.4414 L126.129,31.4414 L126.129,40 L124.413,40 L124.413,31.4414 L121.337,31.4414 L121.337,30.0469 L129.232,30.0469 L129.232,31.4414 Z M136.121,40 L136.121,30.0469 L139.532,30.0469 C140.658,30.0469 141.515,30.2725 142.103,30.7236 C142.69,31.1748 142.984,31.847 142.984,32.7402 C142.984,33.196 142.861,33.6061 142.615,33.9707 C142.369,34.3353 142.009,34.6178 141.535,34.8184 C142.073,34.9642 142.488,35.2399 142.779,35.6455 C143.076,36.0465 143.224,36.5296 143.224,37.0947 C143.224,38.029 142.923,38.7467 142.321,39.248 C141.724,39.7493 140.868,40 139.751,40 L136.121,40 Z M137.851,35.5088 L137.851,38.6191 L139.771,38.6191 C140.314,38.6191 140.738,38.4847 141.043,38.2158 C141.348,37.9469 141.501,37.5732 141.501,37.0947 C141.501,36.0602 140.972,35.5316 139.915,35.5088 L137.851,35.5088 Z M137.851,34.2373 L139.546,34.2373 C140.084,34.2373 140.503,34.1165 140.804,33.875 C141.109,33.6289 141.262,33.2826 141.262,32.8359 C141.262,32.3438 141.12,31.9883 140.838,31.7695 C140.56,31.5508 140.125,31.4414 139.532,31.4414 L137.851,31.4414 L137.851,34.2373 Z M153.483,30.0469 L153.483,36.6982 C153.483,37.7555 153.144,38.5941 152.465,39.2139 C151.79,39.8291 150.89,40.1367 149.765,40.1367 C148.625,40.1367 147.721,39.8337 147.051,39.2275 C146.381,38.6169 146.046,37.7715 146.046,36.6914 L146.046,30.0469 L147.769,30.0469 L147.769,36.7051 C147.769,37.3704 147.937,37.8786 148.274,38.2295 C148.612,38.5804 149.108,38.7559 149.765,38.7559 C151.095,38.7559 151.761,38.054 151.761,36.6504 L151.761,30.0469 L153.483,30.0469 Z M163.777,31.4414 L160.674,31.4414 L160.674,40 L158.958,40 L158.958,31.4414 L155.882,31.4414 L155.882,30.0469 L163.777,30.0469 L163.777,31.4414 Z M173.641,31.4414 L170.537,31.4414 L170.537,40 L168.821,40 L168.821,31.4414 L165.745,31.4414 L165.745,30.0469 L173.641,30.0469 L173.641,31.4414 Z M183.955,35.2832 C183.955,36.2585 183.786,37.1152 183.449,37.8535 C183.112,38.5872 182.629,39.1523 182,39.5488 C181.376,39.9408 180.656,40.1367 179.84,40.1367 C179.033,40.1367 178.313,39.9408 177.68,39.5488 C177.051,39.1523 176.563,38.5895 176.217,37.8604 C175.875,37.1312 175.702,36.2904 175.697,35.3379 L175.697,34.7773 C175.697,33.8066 175.868,32.9499 176.21,32.207 C176.556,31.4642 177.042,30.8968 177.666,30.5049 C178.295,30.1084 179.015,29.9102 179.826,29.9102 C180.637,29.9102 181.355,30.1061 181.979,30.498 C182.608,30.8854 183.094,31.446 183.436,32.1797 C183.777,32.9089 183.951,33.7588 183.955,34.7295 L183.955,35.2832 Z M182.226,34.7637 C182.226,33.6608 182.016,32.8154 181.597,32.2275 C181.182,31.6396 180.592,31.3457 179.826,31.3457 C179.079,31.3457 178.493,31.6396 178.069,32.2275 C177.65,32.8109 177.436,33.638 177.427,34.709 L177.427,35.2832 C177.427,36.377 177.639,37.2223 178.062,37.8193 C178.491,38.4163 179.083,38.7148 179.84,38.7148 C180.605,38.7148 181.193,38.4232 181.604,37.8398 C182.018,37.2565 182.226,36.4043 182.226,35.2832 L182.226,34.7637 Z M194.823,40 L193.094,40 L188.657,32.9385 L188.657,40 L186.928,40 L186.928,30.0469 L188.657,30.0469 L193.107,37.1357 L193.107,30.0469 L194.823,30.0469 L194.823,40 Z" id="Shape" fill="#6200EE" fill-rule="nonzero"></path>
        <rect id="Rectangle" stroke-opacity="0.12" stroke="#000000" x="78.5" y="73.5" width="168" height="35" rx="3.5"></rect>
        <path d="M101.955,91.2832 C101.955,92.2585 101.786,93.1152 101.449,93.8535 C101.112,94.5872 100.629,95.1523 100,95.5488 C99.3757,95.9408 98.6556,96.1367 97.8398,96.1367 C97.0332,96.1367 96.3132,95.9408 95.6797,95.5488 C95.0508,95.1523 94.5632,94.5895 94.2168,93.8604 C93.875,93.1312 93.7018,92.2904 93.6973,91.3379 L93.6973,90.7773 C93.6973,89.8066 93.8682,88.9499 94.21,88.207 C94.5563,87.4642 95.0417,86.8968 95.666,86.5049 C96.2949,86.1084 97.015,85.9102 97.8262,85.9102 C98.6374,85.9102 99.3551,86.1061 99.9795,86.498 C100.608,86.8854 101.094,87.446 101.436,88.1797 C101.777,88.9089 101.951,89.7588 101.955,90.7295 L101.955,91.2832 Z M100.226,90.7637 C100.226,89.6608 100.016,88.8154 99.5967,88.2275 C99.182,87.6396 98.5918,87.3457 97.8262,87.3457 C97.0788,87.3457 96.4932,87.6396 96.0693,88.2275 C95.6501,88.8109 95.4359,89.638 95.4268,90.709 L95.4268,91.2832 C95.4268,92.377 95.6387,93.2223 96.0625,93.8193 C96.4909,94.4163 97.0833,94.7148 97.8398,94.7148 C98.6055,94.7148 99.1934,94.4232 99.6035,93.8398 C100.018,93.2565 100.226,92.4043 100.226,91.2832 L100.226,90.7637 Z M112.208,86.0469 L112.208,92.6982 C112.208,93.7555 111.868,94.5941 111.189,95.2139 C110.515,95.8291 109.615,96.1367 108.489,96.1367 C107.35,96.1367 106.445,95.8337 105.775,95.2275 C105.105,94.6169 104.771,93.7715 104.771,92.6914 L104.771,86.0469 L106.493,86.0469 L106.493,92.7051 C106.493,93.3704 106.662,93.8786 106.999,94.2295 C107.336,94.5804 107.833,94.7559 108.489,94.7559 C109.82,94.7559 110.485,94.054 110.485,92.6504 L110.485,86.0469 L112.208,86.0469 Z M122.502,87.4414 L119.398,87.4414 L119.398,96 L117.683,96 L117.683,87.4414 L114.606,87.4414 L114.606,86.0469 L122.502,86.0469 L122.502,87.4414 Z M126.794,94.6191 L131.312,94.6191 L131.312,96 L125.064,96 L125.064,86.0469 L126.794,86.0469 L126.794,94.6191 Z M135.714,96 L133.991,96 L133.991,86.0469 L135.714,86.0469 L135.714,96 Z M146.985,96 L145.256,96 L140.819,88.9385 L140.819,96 L139.09,96 L139.09,86.0469 L140.819,86.0469 L145.27,93.1357 L145.27,86.0469 L146.985,86.0469 L146.985,96 Z M156.097,91.5566 L152.009,91.5566 L152.009,94.6191 L156.787,94.6191 L156.787,96 L150.279,96 L150.279,86.0469 L156.739,86.0469 L156.739,87.4414 L152.009,87.4414 L152.009,90.1895 L156.097,90.1895 L156.097,91.5566 Z M159.445,96 L159.445,86.0469 L162.385,86.0469 C163.264,86.0469 164.044,86.2428 164.723,86.6348 C165.406,87.0267 165.935,87.5827 166.309,88.3027 C166.682,89.0228 166.869,89.8477 166.869,90.7773 L166.869,91.2764 C166.869,92.2197 166.68,93.0492 166.302,93.7646 C165.928,94.4801 165.393,95.0316 164.695,95.4189 C164.003,95.8063 163.207,96 162.31,96 L159.445,96 Z M161.175,87.4414 L161.175,94.6191 L162.303,94.6191 C163.21,94.6191 163.905,94.3366 164.388,93.7715 C164.875,93.2018 165.124,92.3861 165.133,91.3242 L165.133,90.7705 C165.133,89.6904 164.898,88.8656 164.429,88.2959 C163.959,87.7262 163.278,87.4414 162.385,87.4414 L161.175,87.4414 Z M174.578,96 L174.578,86.0469 L177.989,86.0469 C179.115,86.0469 179.972,86.2725 180.56,86.7236 C181.147,87.1748 181.441,87.847 181.441,88.7402 C181.441,89.196 181.318,89.6061 181.072,89.9707 C180.826,90.3353 180.466,90.6178 179.992,90.8184 C180.53,90.9642 180.945,91.2399 181.236,91.6455 C181.533,92.0465 181.681,92.5296 181.681,93.0947 C181.681,94.029 181.38,94.7467 180.778,95.248 C180.181,95.7493 179.325,96 178.208,96 L174.578,96 Z M176.308,91.5088 L176.308,94.6191 L178.229,94.6191 C178.771,94.6191 179.195,94.4847 179.5,94.2158 C179.805,93.9469 179.958,93.5732 179.958,93.0947 C179.958,92.0602 179.429,91.5316 178.372,91.5088 L176.308,91.5088 Z M176.308,90.2373 L178.003,90.2373 C178.541,90.2373 178.96,90.1165 179.261,89.875 C179.566,89.6289 179.719,89.2826 179.719,88.8359 C179.719,88.3438 179.577,87.9883 179.295,87.7695 C179.017,87.5508 178.582,87.4414 177.989,87.4414 L176.308,87.4414 L176.308,90.2373 Z M191.94,86.0469 L191.94,92.6982 C191.94,93.7555 191.601,94.5941 190.922,95.2139 C190.247,95.8291 189.347,96.1367 188.222,96.1367 C187.082,96.1367 186.178,95.8337 185.508,95.2275 C184.838,94.6169 184.503,93.7715 184.503,92.6914 L184.503,86.0469 L186.226,86.0469 L186.226,92.7051 C186.226,93.3704 186.394,93.8786 186.731,94.2295 C187.069,94.5804 187.565,94.7559 188.222,94.7559 C189.552,94.7559 190.218,94.054 190.218,92.6504 L190.218,86.0469 L191.94,86.0469 Z M202.234,87.4414 L199.131,87.4414 L199.131,96 L197.415,96 L197.415,87.4414 L194.339,87.4414 L194.339,86.0469 L202.234,86.0469 L202.234,87.4414 Z M212.098,87.4414 L208.994,87.4414 L208.994,96 L207.278,96 L207.278,87.4414 L204.202,87.4414 L204.202,86.0469 L212.098,86.0469 L212.098,87.4414 Z M222.412,91.2832 C222.412,92.2585 222.243,93.1152 221.906,93.8535 C221.569,94.5872 221.086,95.1523 220.457,95.5488 C219.833,95.9408 219.113,96.1367 218.297,96.1367 C217.49,96.1367 216.77,95.9408 216.137,95.5488 C215.508,95.1523 215.02,94.5895 214.674,93.8604 C214.332,93.1312 214.159,92.2904 214.154,91.3379 L214.154,90.7773 C214.154,89.8066 214.325,88.9499 214.667,88.207 C215.013,87.4642 215.499,86.8968 216.123,86.5049 C216.752,86.1084 217.472,85.9102 218.283,85.9102 C219.094,85.9102 219.812,86.1061 220.437,86.498 C221.065,86.8854 221.551,87.446 221.893,88.1797 C222.234,88.9089 222.408,89.7588 222.412,90.7295 L222.412,91.2832 Z M220.683,90.7637 C220.683,89.6608 220.473,88.8154 220.054,88.2275 C219.639,87.6396 219.049,87.3457 218.283,87.3457 C217.536,87.3457 216.95,87.6396 216.526,88.2275 C216.107,88.8109 215.893,89.638 215.884,90.709 L215.884,91.2832 C215.884,92.377 216.096,93.2223 216.52,93.8193 C216.948,94.4163 217.54,94.7148 218.297,94.7148 C219.062,94.7148 219.65,94.4232 220.061,93.8398 C220.475,93.2565 220.683,92.4043 220.683,91.2832 L220.683,90.7637 Z M233.28,96 L231.551,96 L227.114,88.9385 L227.114,96 L225.385,96 L225.385,86.0469 L227.114,86.0469 L231.564,93.1357 L231.564,86.0469 L233.28,86.0469 L233.28,96 Z" id="Shape" fill="#6200EE" fill-rule="nonzero"></path>
        <rect id="Rectangle" fill="#6200EE" fill-rule="nonzero" x="78" y="129" width="185" height="36" rx="4"></rect>
        <path d="M101.606,148.76 C101.506,149.822 101.114,150.651 100.431,151.248 C99.7471,151.84 98.8379,152.137 97.7031,152.137 C96.9102,152.137 96.2106,151.95 95.6045,151.576 C95.0029,151.198 94.5381,150.662 94.21,149.97 C93.8818,149.277 93.7109,148.473 93.6973,147.557 L93.6973,146.627 C93.6973,145.688 93.8636,144.861 94.1963,144.146 C94.529,143.43 95.0052,142.879 95.625,142.491 C96.2493,142.104 96.9694,141.91 97.7852,141.91 C98.8835,141.91 99.7676,142.209 100.438,142.806 C101.107,143.403 101.497,144.246 101.606,145.335 L99.8838,145.335 C99.8018,144.619 99.5921,144.104 99.2549,143.79 C98.9222,143.471 98.4323,143.312 97.7852,143.312 C97.0332,143.312 96.4544,143.587 96.0488,144.139 C95.6478,144.686 95.4427,145.49 95.4336,146.552 L95.4336,147.434 C95.4336,148.509 95.625,149.329 96.0078,149.895 C96.3952,150.46 96.9603,150.742 97.7031,150.742 C98.3822,150.742 98.8926,150.59 99.2344,150.284 C99.5762,149.979 99.7926,149.471 99.8838,148.76 L101.606,148.76 Z M112.352,147.283 C112.352,148.258 112.183,149.115 111.846,149.854 C111.508,150.587 111.025,151.152 110.396,151.549 C109.772,151.941 109.052,152.137 108.236,152.137 C107.43,152.137 106.71,151.941 106.076,151.549 C105.447,151.152 104.96,150.59 104.613,149.86 C104.271,149.131 104.098,148.29 104.094,147.338 L104.094,146.777 C104.094,145.807 104.265,144.95 104.606,144.207 C104.953,143.464 105.438,142.897 106.062,142.505 C106.691,142.108 107.411,141.91 108.223,141.91 C109.034,141.91 109.752,142.106 110.376,142.498 C111.005,142.885 111.49,143.446 111.832,144.18 C112.174,144.909 112.347,145.759 112.352,146.729 L112.352,147.283 Z M110.622,146.764 C110.622,145.661 110.412,144.815 109.993,144.228 C109.578,143.64 108.988,143.346 108.223,143.346 C107.475,143.346 106.89,143.64 106.466,144.228 C106.047,144.811 105.832,145.638 105.823,146.709 L105.823,147.283 C105.823,148.377 106.035,149.222 106.459,149.819 C106.887,150.416 107.48,150.715 108.236,150.715 C109.002,150.715 109.59,150.423 110,149.84 C110.415,149.257 110.622,148.404 110.622,147.283 L110.622,146.764 Z M123.22,152 L121.49,152 L117.054,144.938 L117.054,152 L115.324,152 L115.324,142.047 L117.054,142.047 L121.504,149.136 L121.504,142.047 L123.22,142.047 L123.22,152 Z M133.5,143.441 L130.396,143.441 L130.396,152 L128.681,152 L128.681,143.441 L125.604,143.441 L125.604,142.047 L133.5,142.047 L133.5,143.441 Z M140.813,149.683 L136.958,149.683 L136.151,152 L134.354,152 L138.113,142.047 L139.665,142.047 L143.432,152 L141.627,152 L140.813,149.683 Z M137.443,148.288 L140.328,148.288 L138.886,144.159 L137.443,148.288 Z M147.642,152 L145.919,152 L145.919,142.047 L147.642,142.047 L147.642,152 Z M158.913,152 L157.184,152 L152.747,144.938 L152.747,152 L151.018,152 L151.018,142.047 L152.747,142.047 L157.197,149.136 L157.197,142.047 L158.913,142.047 L158.913,152 Z M168.024,147.557 L163.937,147.557 L163.937,150.619 L168.715,150.619 L168.715,152 L162.207,152 L162.207,142.047 L168.667,142.047 L168.667,143.441 L163.937,143.441 L163.937,146.189 L168.024,146.189 L168.024,147.557 Z M171.373,152 L171.373,142.047 L174.312,142.047 C175.192,142.047 175.971,142.243 176.65,142.635 C177.334,143.027 177.863,143.583 178.236,144.303 C178.61,145.023 178.797,145.848 178.797,146.777 L178.797,147.276 C178.797,148.22 178.608,149.049 178.229,149.765 C177.856,150.48 177.32,151.032 176.623,151.419 C175.93,151.806 175.135,152 174.237,152 L171.373,152 Z M173.103,143.441 L173.103,150.619 L174.23,150.619 C175.137,150.619 175.832,150.337 176.315,149.771 C176.803,149.202 177.051,148.386 177.061,147.324 L177.061,146.771 C177.061,145.69 176.826,144.866 176.356,144.296 C175.887,143.726 175.206,143.441 174.312,143.441 L173.103,143.441 Z M186.506,152 L186.506,142.047 L189.917,142.047 C191.043,142.047 191.899,142.272 192.487,142.724 C193.075,143.175 193.369,143.847 193.369,144.74 C193.369,145.196 193.246,145.606 193,145.971 C192.754,146.335 192.394,146.618 191.92,146.818 C192.458,146.964 192.872,147.24 193.164,147.646 C193.46,148.047 193.608,148.53 193.608,149.095 C193.608,150.029 193.308,150.747 192.706,151.248 C192.109,151.749 191.252,152 190.136,152 L186.506,152 Z M188.235,147.509 L188.235,150.619 L190.156,150.619 C190.699,150.619 191.122,150.485 191.428,150.216 C191.733,149.947 191.886,149.573 191.886,149.095 C191.886,148.06 191.357,147.532 190.3,147.509 L188.235,147.509 Z M188.235,146.237 L189.931,146.237 C190.468,146.237 190.888,146.117 191.188,145.875 C191.494,145.629 191.646,145.283 191.646,144.836 C191.646,144.344 191.505,143.988 191.223,143.77 C190.945,143.551 190.509,143.441 189.917,143.441 L188.235,143.441 L188.235,146.237 Z M203.868,142.047 L203.868,148.698 C203.868,149.756 203.529,150.594 202.85,151.214 C202.175,151.829 201.275,152.137 200.149,152.137 C199.01,152.137 198.105,151.834 197.436,151.228 C196.766,150.617 196.431,149.771 196.431,148.691 L196.431,142.047 L198.153,142.047 L198.153,148.705 C198.153,149.37 198.322,149.879 198.659,150.229 C198.996,150.58 199.493,150.756 200.149,150.756 C201.48,150.756 202.146,150.054 202.146,148.65 L202.146,142.047 L203.868,142.047 Z M214.162,143.441 L211.059,143.441 L211.059,152 L209.343,152 L209.343,143.441 L206.267,143.441 L206.267,142.047 L214.162,142.047 L214.162,143.441 Z M224.025,143.441 L220.922,143.441 L220.922,152 L219.206,152 L219.206,143.441 L216.13,143.441 L216.13,142.047 L224.025,142.047 L224.025,143.441 Z M234.34,147.283 C234.34,148.258 234.171,149.115 233.834,149.854 C233.497,150.587 233.014,151.152 232.385,151.549 C231.76,151.941 231.04,152.137 230.225,152.137 C229.418,152.137 228.698,151.941 228.064,151.549 C227.436,151.152 226.948,150.59 226.602,149.86 C226.26,149.131 226.087,148.29 226.082,147.338 L226.082,146.777 C226.082,145.807 226.253,144.95 226.595,144.207 C226.941,143.464 227.426,142.897 228.051,142.505 C228.68,142.108 229.4,141.91 230.211,141.91 C231.022,141.91 231.74,142.106 232.364,142.498 C232.993,142.885 233.479,143.446 233.82,144.18 C234.162,144.909 234.335,145.759 234.34,146.729 L234.34,147.283 Z M232.61,146.764 C232.61,145.661 232.401,144.815 231.981,144.228 C231.567,143.64 230.977,143.346 230.211,143.346 C229.464,143.346 228.878,143.64 228.454,144.228 C228.035,144.811 227.821,145.638 227.812,146.709 L227.812,147.283 C227.812,148.377 228.023,149.222 228.447,149.819 C228.876,150.416 229.468,150.715 230.225,150.715 C230.99,150.715 231.578,150.423 231.988,149.84 C232.403,149.257 232.61,148.404 232.61,147.283 L232.61,146.764 Z M245.208,152 L243.479,152 L239.042,144.938 L239.042,152 L237.312,152 L237.312,142.047 L239.042,142.047 L243.492,149.136 L243.492,142.047 L245.208,142.047 L245.208,152 Z" id="Shape" fill="#FFFFFF" fill-rule="nonzero"></path>
        <circle id="Oval" stroke-opacity="0.54" stroke="#000000" cx="36" cy="35" r="17.5"></circle>
        <polygon id="Path" fill-opacity="0.54" fill="#000000" fill-rule="nonzero" points="37.2432 40 35.5889 40 35.5889 32.0088 33.1484 32.8428 33.1484 31.4414 37.0312 30.0127 37.2432 30.0127"></polygon>
        <circle id="Oval" stroke-opacity="0.54" stroke="#000000" cx="36" cy="91" r="17.5"></circle>
        <path d="M39.4375,96 L32.7451,96 L32.7451,94.8584 L36.0605,91.2422 C36.5391,90.709 36.8786,90.2646 37.0791,89.9092 C37.2842,89.5492 37.3867,89.1891 37.3867,88.8291 C37.3867,88.3551 37.2523,87.9723 36.9834,87.6807 C36.7191,87.389 36.3613,87.2432 35.9102,87.2432 C35.3724,87.2432 34.9554,87.4072 34.6592,87.7354 C34.363,88.0635 34.2148,88.5124 34.2148,89.082 L32.5537,89.082 C32.5537,88.4759 32.6904,87.9313 32.9639,87.4482 C33.2419,86.9606 33.6361,86.5824 34.1465,86.3135 C34.6615,86.0446 35.2539,85.9102 35.9238,85.9102 C36.89,85.9102 37.651,86.154 38.207,86.6416 C38.7676,87.1247 39.0479,87.7946 39.0479,88.6514 C39.0479,89.1481 38.9066,89.6699 38.624,90.2168 C38.346,90.7591 37.888,91.3766 37.25,92.0693 L34.8164,94.6738 L39.4375,94.6738 L39.4375,96 Z" id="Path" fill-opacity="0.54" fill="#000000" fill-rule="nonzero"></path>
        <circle id="Oval" stroke-opacity="0.54" stroke="#000000" cx="36" cy="147" r="17.5"></circle>
        <path d="M34.666,146.265 L35.6777,146.265 C36.1882,146.26 36.5915,146.128 36.8877,145.868 C37.1885,145.608 37.3389,145.232 37.3389,144.74 C37.3389,144.266 37.2135,143.899 36.9629,143.64 C36.7168,143.375 36.3385,143.243 35.8281,143.243 C35.3815,143.243 35.0146,143.373 34.7275,143.633 C34.4404,143.888 34.2969,144.223 34.2969,144.638 L32.6357,144.638 C32.6357,144.127 32.7702,143.662 33.0391,143.243 C33.3125,142.824 33.6908,142.498 34.1738,142.266 C34.6615,142.029 35.2061,141.91 35.8076,141.91 C36.8011,141.91 37.5804,142.161 38.1455,142.662 C38.7152,143.159 39,143.852 39,144.74 C39,145.187 38.8564,145.608 38.5693,146.005 C38.2868,146.397 37.9199,146.693 37.4688,146.894 C38.0156,147.08 38.4303,147.374 38.7129,147.775 C39,148.176 39.1436,148.655 39.1436,149.211 C39.1436,150.104 38.8359,150.815 38.2207,151.344 C37.61,151.872 36.8057,152.137 35.8076,152.137 C34.8506,152.137 34.0667,151.882 33.4561,151.371 C32.8454,150.861 32.54,150.182 32.54,149.334 L34.2012,149.334 C34.2012,149.771 34.347,150.127 34.6387,150.4 C34.9349,150.674 35.3314,150.811 35.8281,150.811 C36.3431,150.811 36.7487,150.674 37.0449,150.4 C37.3411,150.127 37.4893,149.73 37.4893,149.211 C37.4893,148.687 37.3343,148.284 37.0244,148.001 C36.7145,147.718 36.2542,147.577 35.6436,147.577 L34.666,147.577 L34.666,146.265 Z" id="Path" fill-opacity="0.54" fill="#000000" fill-rule="nonzero"></path>
        <circle id="Oval" stroke-opacity="0.54" stroke="#000000" cx="36" cy="203" r="17.5"></circle>
        <path d="M38.3643,204.452 L39.6016,204.452 L39.6016,205.785 L38.3643,205.785 L38.3643,208 L36.7031,208 L36.7031,205.785 L32.4033,205.785 L32.3555,204.773 L36.6484,198.047 L38.3643,198.047 L38.3643,204.452 Z M34.0986,204.452 L36.7031,204.452 L36.7031,200.296 L36.5801,200.515 L34.0986,204.452 Z" id="Shape" fill-opacity="0.54" fill="#000000" fill-rule="nonzero"></path>
        <g id="Group" transform="translate(77.000000, 179.000000)">
            <path d="M94.5,0.5 L94.5,47.5 L138,47.5 C139.932997,47.5 141.5,45.9329966 141.5,44 L141.5,4 C141.5,2.06700338 139.932997,0.5 138,0.5 L94.5,0.5 Z" id="Container" stroke-opacity="0.12" stroke="#000000" fill-rule="nonzero"></path>
            <path d="M47.5,47.5 L47.5,0.5 L4,0.5 C2.06700338,0.5 0.5,2.06700338 0.5,4 L0.5,44 C0.5,45.9329966 2.06700338,47.5 4,47.5 L47.5,47.5 Z" id="Container" stroke-opacity="0.12" stroke="#000000" fill-rule="nonzero"></path>
            <rect id="Container" stroke="#6200EE" fill-opacity="0.08" fill="#6200EE" fill-rule="nonzero" x="47.5" y="0.5" width="47" height="47"></rect>
            <g id="notifications-24px" transform="translate(110.000000, 14.000000)" fill="#000000" fill-opacity="0.6" fill-rule="nonzero">
                <path d="M8,20 C9.1,20 10,19.1 10,18 L6,18 C6,19.1 6.89,20 8,20 Z M14,14 L14,9 C14,5.93 12.36,3.36 9.5,2.68 L9.5,2 C9.5,1.17 8.83,0.5 8,0.5 C7.17,0.5 6.5,1.17 6.5,2 L6.5,2.68 C3.63,3.36 2,5.92 2,9 L2,14 L0,16 L0,17 L16,17 L16,16 L14,14 Z" id="Shape"></path>
            </g>
            <g id="remove_red_eye-24px" transform="translate(59.000000, 12.000000)">
                <polygon id="Path" points="0 0 24 0 24 24 0 24"></polygon>
                <path d="M12,4.5 C7,4.5 2.73,7.61 1,12 C2.73,16.39 7,19.5 12,19.5 C17,19.5 21.27,16.39 23,12 C21.27,7.61 17,4.5 12,4.5 Z M12,17 C9.24,17 7,14.76 7,12 C7,9.24 9.24,7 12,7 C14.76,7 17,9.24 17,12 C17,14.76 14.76,17 12,17 Z M12,9 C10.34,9 9,10.34 9,12 C9,13.66 10.34,15 12,15 C13.66,15 15,13.66 15,12 C15,10.34 13.66,9 12,9 Z" id="Shape" fill="#6200EE" fill-rule="nonzero"></path>
            </g>
            <g id="favorite-24px" transform="translate(12.000000, 12.000000)">
                <polygon id="Path" points="0 0 24 0 24 24 0 24"></polygon>
                <path d="M12,21.35 L10.55,20.03 C5.4,15.36 2,12.28 2,8.5 C2,5.42 4.42,3 7.5,3 C9.24,3 10.91,3.81 12,5.09 C13.09,3.81 14.76,3 16.5,3 C19.58,3 22,5.42 22,8.5 C22,12.28 18.6,15.36 13.45,20.04 L12,21.35 Z" id="Path" fill-opacity="0.6" fill="#000000" fill-rule="nonzero"></path>
            </g>
        </g>
    </g>
</svg>